<svg width="137" height="24" fill="none" xmlns="http://www.w3.org/2000/svg"><path d="M5.844 7.68c.488.104.88.348 1.176.732.296.376.444.808.444 1.296 0 .704-.248 1.264-.744 1.68-.488.408-1.172.612-2.052.612H.744V3.576h3.792c.856 0 1.524.196 2.004.588.488.392.732.924.732 1.596 0 .496-.132.908-.396 1.236-.256.328-.6.556-1.032.684Zm-3.048-.696H4.14c.336 0 .592-.072.768-.216.184-.152.276-.372.276-.66 0-.288-.092-.508-.276-.66-.176-.152-.432-.228-.768-.228H2.796v1.764Zm1.512 3.36c.344 0 .608-.076.792-.228.192-.16.288-.388.288-.684 0-.296-.1-.528-.3-.696-.192-.168-.46-.252-.804-.252H2.796v1.86h1.512Zm10.33 1.74a4.43 4.43 0 0 1-2.184-.552 4.197 4.197 0 0 1-1.572-1.536c-.384-.664-.576-1.408-.576-2.232 0-.824.192-1.564.576-2.22a4.197 4.197 0 0 1 1.572-1.536 4.43 4.43 0 0 1 2.184-.552c.792 0 1.516.184 2.172.552.664.368 1.184.88 1.56 1.536.384.656.576 1.396.576 2.22 0 .824-.192 1.568-.576 2.232a4.108 4.108 0 0 1-1.56 1.536 4.363 4.363 0 0 1-2.172.552Zm0-1.872c.672 0 1.208-.224 1.608-.672.408-.448.612-1.04.612-1.776 0-.744-.204-1.336-.612-1.776-.4-.448-.936-.672-1.608-.672-.68 0-1.224.22-1.632.66-.4.44-.6 1.036-.6 1.788 0 .744.2 1.34.6 1.788.408.44.952.66 1.632.66Zm11.434 1.872a4.43 4.43 0 0 1-2.184-.552 4.197 4.197 0 0 1-1.572-1.536c-.384-.664-.576-1.408-.576-2.232 0-.824.192-1.564.576-2.22a4.197 4.197 0 0 1 1.572-1.536 4.43 4.43 0 0 1 2.184-.552c.792 0 1.516.184 2.172.552.664.368 1.184.88 1.56 1.536.384.656.576 1.396.576 2.22 0 .824-.192 1.568-.576 2.232a4.108 4.108 0 0 1-1.56 1.536 4.363 4.363 0 0 1-2.172.552Zm0-1.872c.672 0 1.208-.224 1.608-.672.408-.448.612-1.04.612-1.776 0-.744-.204-1.336-.612-1.776-.4-.448-.936-.672-1.608-.672-.68 0-1.224.22-1.632.66-.4.44-.6 1.036-.6 1.788 0 .744.2 1.34.6 1.788.408.44.952.66 1.632.66ZM38.405 12l-2.832-3.72V12h-2.052V3.576h2.052v3.696l2.808-3.696h2.412L37.53 7.704 40.913 12h-2.508Zm15.27-1.488h-3.143L50.028 12H47.88l3.047-8.424h2.377L56.35 12H54.18l-.504-1.488Zm-.527-1.584-1.045-3.084-1.032 3.084h2.077Zm16.734-5.352V5.22H67.65V12h-2.052V5.22h-2.232V3.576h6.516Zm5.082 1.644v1.704h2.748v1.584h-2.748v1.848h3.108V12h-5.16V3.576h5.16V5.22h-3.108Zm9.488 6.864c-.616 0-1.168-.1-1.656-.3-.488-.2-.88-.496-1.176-.888-.288-.392-.44-.864-.456-1.416h2.184c.032.312.14.552.324.72.184.16.424.24.72.24.304 0 .544-.068.72-.204a.72.72 0 0 0 .264-.588.68.68 0 0 0-.216-.516 1.602 1.602 0 0 0-.516-.336 7.798 7.798 0 0 0-.864-.3 9.473 9.473 0 0 1-1.332-.504 2.461 2.461 0 0 1-.888-.744c-.248-.328-.372-.756-.372-1.284 0-.784.284-1.396.852-1.836.568-.448 1.308-.672 2.22-.672.928 0 1.676.224 2.244.672.568.44.872 1.056.912 1.848h-2.22c-.016-.272-.116-.484-.3-.636-.184-.16-.42-.24-.708-.24-.248 0-.448.068-.6.204-.152.128-.228.316-.228.564 0 .272.128.484.384.636.256.152.656.316 1.2.492.544.184.984.36 1.32.528.344.168.64.412.888.732s.372.732.372 1.236c0 .48-.124.916-.372 1.308-.24.392-.592.704-1.056.936-.464.232-1.012.348-1.644.348Zm12.395-8.508V5.22h-2.232V12h-2.052V5.22h-2.232V3.576h6.516ZM108.716 12l-1.752-3.18h-.492V12h-2.052V3.576h3.444c.664 0 1.228.116 1.692.348.472.232.824.552 1.056.96.232.4.348.848.348 1.344 0 .56-.16 1.06-.48 1.5-.312.44-.776.752-1.392.936L111.032 12h-2.316Zm-2.244-4.632h1.272c.376 0 .656-.092.84-.276.192-.184.288-.444.288-.78 0-.32-.096-.572-.288-.756-.184-.184-.464-.276-.84-.276h-1.272v2.088Zm9.828-3.792V12h-2.052V3.576h2.052Zm6.643 0c.888 0 1.664.176 2.328.528a3.722 3.722 0 0 1 1.536 1.488c.368.632.552 1.364.552 2.196 0 .824-.184 1.556-.552 2.196a3.705 3.705 0 0 1-1.548 1.488c-.664.352-1.436.528-2.316.528h-3.156V3.576h3.156Zm-.132 6.648c.776 0 1.38-.212 1.812-.636.432-.424.648-1.024.648-1.8s-.216-1.38-.648-1.812c-.432-.432-1.036-.648-1.812-.648h-.972v4.896h.972Zm9.747-5.004v1.704h2.748v1.584h-2.748v1.848h3.108V12h-5.16V3.576h5.16V5.22h-3.108Z" fill="#1D1D1D"/><path stroke="#1D1D1D" stroke-linecap="round" d="M.5 23.5h136"/></svg>